<svg id="Laag_1" data-name="Laag 1" xmlns="http://www.w3.org/2000/svg" viewBox="0 0 781.62 781.62"><path d="M1016.56,83.62H263.82a14.44,14.44,0,0,0-14.44,14.43V850.8a14.45,14.45,0,0,0,14.44,14.44h752.74A14.44,14.44,0,0,0,1031,850.8V98.05A14.43,14.43,0,0,0,1016.56,83.62ZM641,714.4c-132.11,0-239.21-107.1-239.21-239.21S508.84,236,641,236s239.21,107.1,239.21,239.21S773.06,714.4,641,714.4Z" transform="translate(-249.38 -83.62)"/><rect x="384.01" y="106.48" width="12.46" height="99.68"/><rect x="387.41" y="184.64" width="5.66" height="99.68"/><path d="M636.79,368q-.56,4-1.13,7.92,1.85,9.63,3.7,19.26l4.23-19.81L642.38,368Z" transform="translate(-249.38 -83.62)"/><rect x="633.87" y="655.79" width="12.46" height="99.68" transform="translate(1030.82 1327.65) rotate(180)"/><rect x="637.27" y="577.63" width="5.66" height="99.68" transform="translate(1030.82 1171.33) rotate(180)"/><path d="M642.93,577.63l1.14-7.93q-1.86-9.63-3.7-19.26l-4.23,19.82,1.21,7.37Z" transform="translate(-249.38 -83.62)"/><rect x="375.95" y="425.44" width="12.46" height="99.68" transform="translate(-342.48 773.84) rotate(-90)"/><rect x="457.51" y="425.44" width="5.66" height="99.68" transform="translate(-264.32 852) rotate(-90)"/><path d="M510.18,478.11l7.93,1.13,19.26-3.7-19.81-4.22-7.38,1.2Z" transform="translate(-249.38 -83.62)"/><rect x="894.7" y="421.95" width="12.46" height="99.68" transform="translate(179.76 1289.11) rotate(-90)"/><rect x="819.94" y="421.95" width="5.66" height="99.68" transform="translate(101.6 1210.95) rotate(-90)"/><path d="M772.93,474.63,765,475.76l-19.26-3.7,19.81-4.23,7.38,1.21Z" transform="translate(-249.38 -83.62)"/></svg>