<svg id="Laag_1" data-name="Laag 1" xmlns="http://www.w3.org/2000/svg" viewBox="0 0 717 717"><path d="M654.5,153C456.51,153,296,313.51,296,511.5S456.51,870,654.5,870,1013,709.49,1013,511.5,852.49,153,654.5,153ZM654,754c-132,0-239-107-239-239S522,276,654,276,893,383,893,515,786,754,654,754Z" transform="translate(-296 -153)"/><rect x="350.1" y="76.06" width="12.46" height="99.68"/><rect x="353.5" y="154.22" width="5.66" height="99.68"/><path d="M649.5,406.91q-.56,4-1.13,7.93,1.85,9.63,3.7,19.25l4.23-19.81-1.21-7.37Z" transform="translate(-296 -153)"/><rect x="646.58" y="694.76" width="12.46" height="99.68" transform="translate(1009.62 1336.2) rotate(180)"/><rect x="649.98" y="616.59" width="5.66" height="99.68" transform="translate(1009.62 1179.87) rotate(180)"/><path d="M655.64,616.59l1.14-7.93q-1.86-9.61-3.7-19.25l-4.23,19.81,1.21,7.37Z" transform="translate(-296 -153)"/><rect x="388.66" y="464.4" width="12.46" height="99.68" transform="translate(-415.35 756.13) rotate(-90)"/><rect x="470.22" y="464.4" width="5.66" height="99.68" transform="translate(-337.19 834.3) rotate(-90)"/><path d="M522.89,517.07l7.93,1.14,19.26-3.7-19.81-4.23-7.38,1.21Z" transform="translate(-296 -153)"/><rect x="907.41" y="460.91" width="12.46" height="99.68" transform="translate(106.89 1271.4) rotate(-90)"/><rect x="832.65" y="460.91" width="5.66" height="99.68" transform="translate(28.73 1193.24) rotate(-90)"/><path d="M785.64,513.59l-7.93,1.13L758.45,511l19.81-4.23,7.38,1.21Z" transform="translate(-296 -153)"/></svg>